<svg width="204" height="43" viewBox="0 0 204 43" fill="none" xmlns="http://www.w3.org/2000/svg">
<g clip-path="url(#clip0_6_2062)">
<path d="M8.27397 29.6365C7.90645 28.5192 7.72412 27.1088 7.72412 25.2126C7.72412 23.3156 7.90645 21.9023 8.27397 20.7879C9.30074 17.5902 12.0207 15.843 15.5822 15.843C18.2271 15.843 20.3213 16.9216 21.7185 18.6322C21.8265 18.7799 21.8629 19.0027 21.6813 19.1511L19.3682 21.1964C19.1837 21.3462 19.0007 21.3089 18.8527 21.1233C17.9704 20.12 17.0523 19.561 15.5829 19.561C14.0041 19.561 12.7929 20.3422 12.2774 21.9038C11.9856 22.7982 11.9106 23.838 11.9106 25.2133C11.9106 26.5885 11.9849 27.6664 12.2774 28.5593C12.7922 30.0822 14.0041 30.8634 15.5829 30.8634C17.0523 30.8634 17.9704 30.3051 18.8527 29.3039C19.0007 29.1155 19.1837 29.1155 19.3682 29.2645L21.6813 31.3099C21.8629 31.4582 21.8265 31.6445 21.7185 31.8309C20.3221 33.505 18.2278 34.5821 15.5822 34.5821C12.0207 34.5807 9.30074 32.832 8.27397 29.6365Z" fill="#FF8591"/>
<path d="M88.5279 29.6365C88.1604 28.5192 87.978 27.1088 87.978 25.2126C87.978 23.3156 88.1604 21.9023 88.5279 20.7879C89.5568 17.5902 92.2739 15.843 95.8354 15.843C98.481 15.843 100.576 16.9216 101.971 18.6322C102.08 18.7799 102.118 19.0027 101.933 19.1511L99.6193 21.1964C99.4355 21.3462 99.2532 21.3089 99.1059 21.1233C98.225 20.12 97.3062 19.561 95.8354 19.561C94.2573 19.561 93.0447 20.3422 92.5313 21.9038C92.2367 22.7982 92.1652 23.838 92.1652 25.2133C92.1652 26.5885 92.2367 27.6664 92.5313 28.5593C93.0447 30.0822 94.2573 30.8634 95.8354 30.8634C97.3062 30.8634 98.225 30.3051 99.1059 29.3039C99.2532 29.1155 99.4362 29.1155 99.6193 29.2645L101.933 31.3099C102.118 31.4582 102.08 31.6445 101.971 31.8309C100.576 33.505 98.481 34.5821 95.8354 34.5821C92.2739 34.5807 89.5568 32.832 88.5279 29.6365Z" fill="#FF8591"/>
<path d="M181.284 34.1729C181.064 34.1729 180.917 34.0253 180.917 33.8002V23.4654C180.917 21.1599 179.778 19.5603 177.573 19.5603C175.443 19.5603 174.195 21.1592 174.195 23.4654V33.8002C174.195 34.0246 174.047 34.1729 173.828 34.1729H170.447C170.227 34.1729 170.079 34.0253 170.079 33.8002V23.4654C170.079 21.1599 168.941 19.5603 166.74 19.5603C164.608 19.5603 163.359 21.1592 163.359 23.4654V33.8002C163.359 34.0246 163.212 34.1729 162.991 34.1729H159.612C159.39 34.1729 159.245 34.0253 159.245 33.8002V16.6235C159.245 16.3999 159.39 16.2508 159.612 16.2508H162.991C163.212 16.2508 163.359 16.3999 163.359 16.6235V17.9249H163.396C164.168 16.8091 165.71 15.843 168.06 15.843C170.154 15.843 171.844 16.6966 172.907 18.2216H172.945C174.303 16.736 176.067 15.843 178.602 15.843C182.714 15.843 185.03 18.6681 185.03 22.4979V33.7995C185.03 34.0245 184.882 34.1729 184.661 34.1729H181.284Z" fill="#FF8591"/>
<path d="M190.133 40.8645C189.914 40.8645 189.767 40.7154 189.767 40.4911V37.5177C189.767 37.2955 189.914 37.1443 190.133 37.1443H190.795C192.19 37.1443 192.89 36.5151 193.44 35.0266L193.955 33.5023L187.49 16.6229C187.415 16.3993 187.563 16.2502 187.785 16.2502H191.42C191.64 16.2502 191.788 16.3993 191.859 16.6229L195.865 28.3345H195.937L199.758 16.6229C199.832 16.3993 199.979 16.2502 200.197 16.2502H203.686C203.908 16.2502 204.055 16.3993 203.98 16.6229L197.223 35.2867C195.682 39.5258 194.21 40.863 191.273 40.863L190.133 40.8645Z" fill="#FF8591"/>
<path d="M25.098 29.638C24.694 28.3717 24.5103 27.1828 24.5103 25.2127C24.5103 23.2455 24.694 22.0551 25.098 20.7938C26.0897 17.6706 28.8054 15.8481 32.4041 15.8481C35.9649 15.8481 38.682 17.6699 39.6737 20.7938C40.0755 22.0551 40.2607 23.2455 40.2607 25.2127C40.2607 27.1828 40.0755 28.3717 39.6737 29.638C38.6812 32.759 35.9649 34.5801 32.4041 34.5801C28.8054 34.5808 26.0897 32.7598 25.098 29.638ZM35.7082 28.5229C36.0028 27.5948 36.0757 26.7384 36.0757 25.2134C36.0757 23.6926 36.0028 22.8735 35.7082 21.9082C35.1948 20.4226 34.0558 19.5654 32.4041 19.5654C30.7531 19.5654 29.5762 20.4226 29.0635 21.9082C28.7711 22.8742 28.6967 23.6926 28.6967 25.2134C28.6967 26.7384 28.7711 27.5948 29.0635 28.5229C29.5762 30.0114 30.7538 30.8635 32.4041 30.8635C34.0558 30.8628 35.1948 30.0107 35.7082 28.5229Z" fill="#FF8591"/>
<path d="M111.813 15.843C108.911 15.843 106.965 16.5489 105.532 17.5902C105.387 17.7035 105.349 17.8869 105.46 18.0725L106.816 20.5278C106.93 20.7141 107.147 20.7514 107.332 20.6023C108.177 19.9344 109.388 19.3747 111.373 19.3747C114.267 19.3747 115.249 20.2547 115.299 22.189H115.3V22.2126C115.301 22.2578 115.301 22.3037 115.301 22.3517V28.1523C115.301 30.1969 113.906 31.1988 111.373 31.1988C109.388 31.1988 108.324 30.457 108.324 28.9707C108.324 27.2966 109.5 26.5513 112.144 26.5513L112.947 26.5527C113.168 26.5527 113.316 26.4036 113.316 26.1822V23.7986C113.316 23.5764 113.168 23.4281 112.947 23.4281H112.771L111.483 23.4274C107.113 23.4274 104.392 25.2147 104.392 29.1162C104.392 32.8722 107.113 34.5814 110.343 34.5814C112.839 34.5814 114.492 33.7271 115.338 32.5002H115.373V33.8017C115.373 34.0253 115.522 34.1743 115.742 34.1743H118.826C119.047 34.1743 119.194 34.026 119.194 33.8017V22.0901C119.195 17.7035 117.212 15.843 111.813 15.843Z" fill="#FF8591"/>
<path d="M67.932 23.426C67.8362 23.426 67.7733 23.4897 67.7733 23.5858V23.6918V24.0029V25.9722V26.2367V26.3893C67.7733 26.4854 67.8362 26.5499 67.932 26.5499H68.0235H77.027C77.2845 26.5499 77.4317 26.4022 77.4317 26.1808C77.4317 23.2783 77.2466 22.0507 76.844 20.788C75.8508 17.7393 73.2074 15.8438 69.5708 15.8438C66.0451 15.8438 63.328 17.6648 62.3348 20.788C61.9694 21.9403 61.7471 23.3536 61.7471 25.2126C61.7471 27.0716 62.0045 28.4461 62.3741 29.5999C63.3652 32.7217 66.0086 34.5807 69.7546 34.5807C73.0222 34.5807 75.5219 33.3165 77.0263 31.532C77.1722 31.3471 77.1722 31.1615 76.9891 31.011L74.8241 29.0782C74.6389 28.9299 74.4558 28.9686 74.2714 29.1527C73.3912 30.1202 72.1056 30.8634 70.1221 30.8634C68.1408 30.8634 66.7436 29.8973 66.1559 28.1509C66.0672 27.9065 65.9936 27.6499 65.9471 27.3711H65.9464C65.8127 26.6144 65.734 25.8776 65.734 24.7955C65.7626 23.7757 65.8212 23.1242 65.9657 22.2965C65.9671 22.285 65.9693 22.275 65.9714 22.2643C65.9728 22.2557 65.9743 22.2492 65.9757 22.2406C66.0107 22.0457 66.0586 21.8629 66.118 21.6802C66.5956 20.2304 67.9177 19.3754 69.6087 19.3754C71.2618 19.3754 72.5818 20.2304 73.0594 21.6802C73.2074 22.1288 73.2796 22.5724 73.2796 23.2059C73.2796 23.3543 73.2067 23.4274 73.0594 23.4274H68.2337L68.2344 23.4267L67.932 23.426Z" fill="#FF8591"/>
<path d="M58.3351 8.89233H54.9616C54.7393 8.89233 54.5927 9.04068 54.5927 9.26141V17.948V25.1317C54.5927 25.1511 54.5927 25.1704 54.5927 25.1891C54.5927 25.2084 54.5927 25.2278 54.5927 25.2464V26.2003H54.5741C54.5348 27.2251 54.424 27.8987 54.2273 28.5301C53.7504 30.0136 52.6114 30.8298 50.9261 30.8298C49.2758 30.8298 48.1396 30.0136 47.6606 28.5301C47.4046 27.7124 47.2959 26.8223 47.2959 25.1891C47.2959 23.5565 47.4046 22.6643 47.6606 21.8495C48.1303 20.3939 49.2301 19.5719 50.826 19.5397H52.266C52.3361 19.5225 52.3819 19.4673 52.3819 19.387L52.4004 15.9929C52.4004 15.9062 52.3461 15.8482 52.266 15.8382L51.1163 15.8339H49.7649C46.8083 15.8654 44.6439 17.3109 43.7373 20.1381C43.2968 21.5133 43.1138 22.7775 43.1138 25.1891C43.1138 27.6013 43.2968 28.8641 43.7373 30.2365C44.6539 33.0959 46.8548 34.5436 49.8614 34.5436C52.2467 34.5436 53.7139 33.6542 54.5555 32.4273H54.5913V33.7638C54.5913 33.9874 54.7386 34.1358 54.9602 34.1358H58.3337C58.5539 34.1358 58.7012 33.9881 58.7012 33.7638V9.26141C58.7026 9.03997 58.5553 8.89233 58.3351 8.89233Z" fill="#FF8591"/>
<path d="M146.772 23.426C146.678 23.426 146.613 23.4897 146.613 23.5858V23.6918V24.0029V25.9722V26.2367V26.3893C146.613 26.4854 146.678 26.5499 146.772 26.5499H146.865H155.869C156.126 26.5499 156.273 26.4022 156.273 26.1808C156.273 23.2783 156.089 22.0507 155.686 20.788C154.693 17.7393 152.049 15.8438 148.414 15.8438C144.887 15.8438 142.17 17.6648 141.177 20.788C140.811 21.9403 140.589 23.3536 140.589 25.2126C140.589 27.0716 140.847 28.4461 141.216 29.5999C142.207 32.7217 144.851 34.5807 148.597 34.5807C151.865 34.5807 154.364 33.3165 155.869 31.532C156.015 31.3471 156.015 31.1615 155.831 31.011L153.666 29.0782C153.482 28.9299 153.299 28.9686 153.114 29.1527C152.234 30.1202 150.949 30.8634 148.964 30.8634C146.983 30.8634 145.587 29.8973 144.998 28.1509C144.91 27.9065 144.836 27.6499 144.791 27.3711H144.79C144.656 26.6144 144.577 25.8776 144.577 24.7955C144.604 23.7757 144.663 23.1242 144.808 22.2965C144.811 22.285 144.812 22.275 144.814 22.2643C144.815 22.2557 144.817 22.2492 144.818 22.2406C144.854 22.0457 144.902 21.8629 144.961 21.6802C145.438 20.2304 146.761 19.3754 148.452 19.3754C150.105 19.3754 151.425 20.2304 151.902 21.6802C152.05 22.1288 152.123 22.5724 152.123 23.2059C152.123 23.3543 152.05 23.4274 151.902 23.4274H147.077L146.772 23.426Z" fill="#FF8591"/>
<path d="M137.35 8.89233H133.97C133.749 8.89233 133.602 9.0414 133.602 9.26213V17.9609V25.1561V25.2127V25.2708V26.2261H133.584C133.544 27.2523 133.433 27.9267 133.236 28.5588C132.758 30.0451 131.617 30.8635 129.93 30.8635C128.279 30.8635 127.14 30.0451 126.661 28.5588C126.405 27.7396 126.294 26.8488 126.294 25.2127C126.294 23.578 126.404 22.6836 126.661 21.8681C127.13 20.4104 128.232 19.5949 129.831 19.5626L131.273 19.5633C131.494 19.5633 131.642 19.415 131.642 19.1935V16.2144C131.642 15.9922 131.494 15.8439 131.273 15.8439H131.097L128.917 15.8432C128.899 15.8432 128.882 15.8432 128.866 15.8432C128.849 15.8432 128.834 15.8432 128.819 15.8432H128.769C125.808 15.874 123.64 17.3223 122.733 20.1538C122.292 21.5313 122.109 22.7962 122.109 25.2113C122.109 27.6271 122.292 28.8927 122.733 30.2673C123.65 33.1296 125.856 34.5801 128.867 34.5801C131.255 34.5801 132.724 33.69 133.568 32.461H133.604V33.799C133.604 34.024 133.751 34.1716 133.972 34.1716H137.352C137.572 34.1716 137.72 34.0247 137.72 33.799V9.26213C137.717 9.04068 137.57 8.89233 137.35 8.89233Z" fill="#FF8591"/>
<path d="M88.252 39.2419V42.6295C88.252 42.8524 88.3992 43 88.6202 43H101.144C101.368 43 101.516 42.8517 101.516 42.6295V39.2419C101.516 39.0219 101.368 38.8735 101.144 38.8735H88.6202C88.3992 38.8735 88.252 39.0219 88.252 39.2419Z" fill="#FF8591"/>
<path d="M85.0724 0.119681C85.0667 0.113948 85.0631 0.106782 85.0581 0.101765C85.0574 0.101048 85.0566 0.101048 85.0566 0.101048C84.9923 0.037266 84.9008 0 84.7921 0H84.7878H0.36895C0.341065 0 0.314609 0.00286662 0.288868 0.00716655C0.281718 0.00859986 0.275283 0.0114665 0.267418 0.0128998C0.250972 0.0171997 0.233097 0.020783 0.218081 0.0272329C0.215221 0.0279495 0.213076 0.0293828 0.210931 0.0308162C0.0800822 0.0845653 0 0.207113 0 0.369077V0.370511V42.6245V42.6273C0 42.7563 0.0500514 42.8574 0.134424 42.9219C0.140859 42.9283 0.146579 42.9341 0.155159 42.9384C0.213791 42.9756 0.285293 42.9964 0.36895 42.9964H84.7871H84.7914C84.9158 42.9964 85.0166 42.9484 85.0802 42.866C85.1303 42.8044 85.1596 42.7234 85.1596 42.6266V42.6238V0.370511V0.369077C85.1596 0.268029 85.1274 0.182747 85.0724 0.119681ZM4.48032 38.8721C4.45386 38.8721 4.42812 38.8699 4.40524 38.8663C4.39809 38.8649 4.39022 38.8613 4.38307 38.8592C4.36591 38.8556 4.34875 38.852 4.33302 38.8456C4.33016 38.8448 4.32873 38.8427 4.32587 38.842C4.19574 38.7889 4.11637 38.6671 4.11566 38.5066V7.87962V4.49343C4.11566 4.33074 4.19574 4.20963 4.32587 4.15516C4.32945 4.15445 4.33159 4.1523 4.33374 4.15158C4.34875 4.14585 4.39737 4.13366 4.40524 4.13151C4.42955 4.12793 4.45529 4.12578 4.48175 4.12578H80.6772C80.7043 4.12578 80.7293 4.12793 80.7537 4.13151C80.7615 4.13366 80.7687 4.13653 80.7751 4.13868C80.7923 4.14226 80.8094 4.14585 80.8252 4.1523C80.8287 4.15301 80.8302 4.15516 80.833 4.15588C80.9639 4.20963 81.0432 4.33146 81.0432 4.49414V38.5073C81.0425 38.6685 80.9624 38.7904 80.8337 38.8434C80.8309 38.8441 80.8295 38.8463 80.8259 38.847C80.8109 38.8527 80.793 38.857 80.7765 38.8606C80.7687 38.8628 80.7622 38.8663 80.7544 38.8678C80.7301 38.8721 80.7065 38.8735 80.68 38.8735H4.48032V38.8721Z" fill="#FF8591"/>
</g>
<defs>
<clipPath id="clip0_6_2062">
<rect width="204" height="43" fill="white"/>
</clipPath>
</defs>
</svg>
