<svg width="375" height="43" viewBox="0 0 375 43" fill="none" xmlns="http://www.w3.org/2000/svg">
<g clip-path="url(#clip0_6_2076)">
<path d="M63.2428 9.95806L64.0232 10.0494L64.7642 10.1892L65.466 10.3612L66.1303 10.569L66.7589 10.8216L67.341 11.1047L67.891 11.4326L68.3964 11.7999L68.8732 12.1959L69.3071 12.6348L69.7017 13.106L70.0571 13.622L70.375 14.1774L70.6571 14.7597L70.9 15.3922L71.1035 16.0461L71.275 16.7539L71.4071 17.4849L71.4982 18.2678L71.5535 19.0759L71.5732 19.9305V20.1383L71.566 20.3336L71.5464 20.5217L71.491 20.8819L71.4535 21.0413L71.4071 21.2008L71.3589 21.3405L71.2267 21.6039L71.1642 21.7168L71.0767 21.8279L70.9928 21.9318L70.9 22.016L70.7964 22.1038L70.6946 22.1683L70.5821 22.2364L70.4589 22.2794L70.3267 22.3277L70.1964 22.3671L70.0571 22.3833L69.9053 22.403H54.025V22.2722H53.9892V25.5635L53.9964 26.0042L54.0446 26.4342L54.1089 26.8427L54.2125 27.2261L54.3357 27.5934L54.4946 27.941L54.6696 28.2617L54.8892 28.5681L55.1196 28.853L55.3946 29.1235L55.6928 29.3672L56.0125 29.5947L56.366 29.8026L56.7517 29.9907L57.1553 30.1591L57.5964 30.3114L58.0625 30.4296L58.5607 30.5461L59.0857 30.6303L59.6357 30.6948L60.216 30.7504L60.8267 30.7772L61.4625 30.7898H61.6982L61.9339 30.7772H62.1553L62.3839 30.7701L62.5982 30.7629L62.8125 30.7414L63.0285 30.7342L63.4428 30.6948L63.6375 30.6787L63.8375 30.6464L64.2107 30.5909L64.3857 30.5622L64.5732 30.5264L65.0821 30.4153L65.25 30.3669L65.4089 30.3257L65.5607 30.2827L65.7089 30.2272L65.8589 30.1788L65.9428 30.1501L66.0267 30.1107L66.1232 30.0821L66.2142 30.0391L66.3178 29.9996L66.4214 29.9513L66.5321 29.8957L66.6446 29.8474L67.0107 29.6521L67.1535 29.575L67.2803 29.4998L67.5839 29.3314L67.7303 29.24L67.891 29.1432L68.05 29.0393L68.3875 28.8171L68.5678 28.7007L68.7553 28.5806L68.941 28.4481L69.1642 28.2402L69.391 28.0539L69.4946 27.9697L69.5875 27.8926L69.691 27.8174L69.7857 27.7421L69.9535 27.6096L70.1196 27.4985L70.1964 27.4501L70.2714 27.4143L70.3392 27.3659L70.466 27.3104L70.5267 27.2817L70.5821 27.262L70.6267 27.2459L70.7214 27.2261H70.8732L71.0607 27.2459L71.1517 27.262L71.2357 27.2817L71.3232 27.3104L71.3946 27.3372L71.5267 27.4143L71.5928 27.4626L71.7053 27.5737L71.7535 27.6293L71.8 27.6974L71.8732 27.8461L71.9 27.9285L71.9196 28.0252L71.9482 28.122L71.9607 28.2134L71.9767 28.3173V28.4284L71.9875 28.552L71.9767 28.6649L71.9678 28.7885L71.9482 28.9085L71.9321 29.0196L71.816 29.3869L71.7607 29.4998L71.7053 29.6234L71.641 29.747L71.566 29.8671L71.4821 29.9907L71.3946 30.1036L71.2071 30.3472L70.9839 30.5909L70.741 30.8381L70.4589 31.0818L70.3071 31.2019L70.1607 31.3326L69.8982 31.5208L69.6267 31.7089L69.3446 31.8881L69.0535 32.069L68.7553 32.2285L68.4357 32.3879L68.1089 32.5277L67.7714 32.6674L67.425 32.8L67.0589 32.9236L66.6839 33.0347L66.2982 33.1386L65.9071 33.2426L65.5017 33.3268L64.6607 33.4791L64.2196 33.5346L63.7696 33.5901L63.3107 33.626L62.8339 33.6672L62.3553 33.6869L61.866 33.703H61.3589L60.491 33.6941L59.6553 33.6475L58.8589 33.5704L58.1017 33.4594L57.3785 33.3268L56.6964 33.1601L56.0589 32.9595L55.45 32.7284L54.8892 32.4721L54.3625 32.1801L53.8732 31.8612L53.416 31.5046L53.0125 31.1248L52.6392 30.7145L52.3 30.263L52.0107 29.7918L51.7589 29.283L51.5321 28.7491L51.3642 28.1775L51.225 27.5809L51.1214 26.9538L51.066 26.2873L51.0464 25.5921V17.1498L51.066 16.9026L51.0821 16.6786L51.1107 16.4421L51.15 16.2074L51.1857 15.9834L51.241 15.7559L51.2964 15.5391L51.3732 15.3151L51.4482 15.1001L51.5321 14.8851L51.6267 14.6773L51.8303 14.2616L51.9535 14.0574L52.0767 13.8567L52.2089 13.6614L52.3482 13.4733L52.5 13.287L52.6589 13.0989L52.9928 12.7387L53.1732 12.5596L53.416 12.3266L53.941 11.8913L54.2196 11.696L54.5107 11.5079L54.8125 11.3287L55.1321 11.1603L55.45 11.0008L55.7857 10.8611L56.1321 10.7177L56.4892 10.5977L56.8553 10.4812L57.2375 10.3701L57.625 10.277L58.0267 10.1892L58.4285 10.1175L58.8517 10.062L59.2803 10.0029L59.7107 9.95806L60.1607 9.9294L60.6232 9.90252L61.0892 9.88998L61.566 9.88281L62.4196 9.90252L63.2428 9.95806ZM59.6 12.8355L58.8785 12.9537L58.175 13.1347L57.4928 13.3586L56.8446 13.6346L56.2196 13.9535L55.6446 14.405L55.1589 14.8726L54.7464 15.3796L54.4196 15.9064L54.1839 16.4618L54.0321 17.0459L53.9892 17.6569V19.3876H68.6035L68.4446 17.63L67.9946 16.1357L67.2375 14.912L66.166 13.9606L64.8 13.2744L63.1125 12.8713L61.1285 12.7316L60.3482 12.7584L59.6 12.8355Z" fill="#FF8591"/>
<path d="M363.513 0.309958C363.304 0.516 363.097 0.815208 363.097 1.11621C363.095 1.63579 363.702 2.33992 364.827 3.49733C369.511 8.02308 371.868 13.5665 371.852 20.2494C371.834 27.6454 369.356 33.5848 364.538 38.1876C363.525 39.0978 363.109 39.8108 363.107 40.4218C363.107 40.7228 363.313 41.0345 363.52 41.3338C363.715 41.5434 364.129 41.7512 364.427 41.7512C365.541 41.7548 367.102 40.4325 369.138 37.8597C373.104 32.9828 374.897 27.597 374.997 20.2584C375.09 12.9143 372.797 7.93529 368.304 2.79321C366.688 0.95675 365.341 0.00179167 364.42 0C364.122 0 363.811 0.102125 363.513 0.309958Z" fill="#FF8591"/>
<path d="M25.3732 11.7801C25.3732 10.7643 25.9839 10.3611 27.2017 10.3611C27.791 10.3611 32.5214 10.3611 33.1232 10.3611C34.1339 10.3611 34.6392 11.2731 34.6392 12.9393C36.4678 11.0008 38.4232 9.84155 40.4571 9.84155C42.1821 9.84155 43.5321 10.3611 44.4482 11.377C45.4625 12.3911 45.8732 13.8495 45.8732 15.4835C45.8732 16.6015 45.3589 17.2143 44.4482 17.2143C43.8392 17.2143 43.4357 16.8022 43.2339 16.0945C42.8267 14.6647 42.625 13.9534 42.5214 13.8495C42.1178 13.1418 41.3017 12.7315 40.291 12.7315C39.175 12.7315 38.0607 13.1418 37.1125 13.9534C36.5035 14.3655 35.6875 15.2757 34.6392 16.6302C34.6392 17.5529 34.6392 22.1324 34.6392 30.3741C37.9446 30.3741 39.7857 30.3741 40.1464 30.3741C41.366 30.3741 41.975 30.8936 41.975 31.8056C41.975 32.8197 41.366 33.3357 40.1464 33.3357C38.8446 33.3357 28.3714 33.3357 27.0589 33.3357C25.8428 33.3357 25.2339 32.8197 25.2339 31.9095C25.2339 30.8936 25.8428 30.478 27.0589 30.478C27.3607 30.478 28.8589 30.478 31.5571 30.478C31.5571 30.4708 31.5571 30.426 31.5571 30.3472C31.5607 30.3472 31.5714 30.3472 31.5946 30.3472C31.5946 20.0648 31.5946 14.353 31.5946 13.2099C28.8589 13.2099 27.3928 13.2099 27.2017 13.2099C25.9839 13.2099 25.3732 12.7028 25.3732 11.7801Z" fill="#FF8591"/>
<path d="M349.393 21.5788C347.634 21.1273 354.857 12.5649 342.018 2.31299C342.018 2.31299 343.704 7.68261 335.209 19.6653C326.711 31.6444 338.988 38.7788 338.988 38.7788C338.988 38.7788 333.227 35.6989 339.923 24.7321C341.123 22.7416 342.691 20.9392 344.639 16.8846C344.639 16.8846 346.363 19.3249 345.463 24.6192C344.116 32.619 351.3 30.3293 351.413 30.4404C353.922 33.4056 349.334 38.6157 349.055 38.7788C348.777 38.9382 362.155 30.7037 352.65 18.3108C351.998 18.9647 351.154 22.0303 349.393 21.5788Z" fill="#FF8591"/>
<path d="M1.725 10.3905C1.95179 10.3905 3.03393 10.3905 5.01429 10.3905C5.01429 8.65978 5.01429 7.70123 5.01429 7.50594C5.01429 2.4839 7.58214 0.00244141 12.5839 0.00244141C14.6179 0.00244141 16.3786 0.414525 17.6875 1.1294C19.4125 2.14348 20.3679 3.80973 20.3679 5.74832C20.3679 7.06161 19.8554 7.57761 18.9464 7.57761C18.3375 7.57761 17.7286 7.16553 17.4179 6.45065C17.0161 5.13557 16.6125 4.42069 16.4054 4.08207C15.7964 3.36719 14.5786 2.96227 12.8179 2.96227C9.74464 2.96227 8.22679 4.48519 8.22679 7.57761C8.22679 7.75678 8.22679 8.68844 8.22679 10.3619C11.7786 10.3619 13.7464 10.3619 14.1411 10.3619C15.4589 10.3619 16.0679 10.8689 16.0679 11.7809C16.0679 12.7949 15.4589 13.2106 14.1411 13.2106C13.7464 13.2106 11.7786 13.2106 8.22679 13.2106C8.22679 24.4748 8.22679 30.7224 8.22679 31.9729C8.22679 33.0927 7.7125 33.7037 6.80179 33.7037C5.78929 33.7037 5.38036 33.0927 5.38036 31.9729C5.38036 30.7224 5.38036 24.5071 5.38036 13.2429C5.375 13.2429 1.90536 13.2393 1.725 13.2393C0.608929 13.2393 0 12.7322 0 11.8203C0 10.7937 0.608929 10.3905 1.725 10.3905Z" fill="#FF8591"/>
<path d="M324.787 0.315329C324.994 0.521371 325.202 0.820579 325.202 1.12158C325.203 1.64116 324.596 2.34529 323.471 3.5027C318.787 8.02845 316.432 13.5719 316.446 20.2548C316.464 27.6508 318.943 33.5902 323.76 38.193C324.773 39.1031 325.189 39.8162 325.191 40.4272C325.191 40.7282 324.985 41.0399 324.778 41.3391C324.584 41.5487 324.171 41.7566 323.871 41.7566C322.757 41.7602 321.196 40.4379 319.16 37.8651C315.194 32.9882 313.402 27.6024 313.302 20.2637C313.209 12.9197 315.502 7.94066 319.994 2.79858C321.61 0.962121 322.959 0.00716276 323.878 0.00537109C324.177 0.00537109 324.487 0.107496 324.787 0.315329Z" fill="#FF8591"/>
<path d="M88.916 9.95806L89.6963 10.0494L90.4374 10.1892L91.1374 10.3612L91.8035 10.569L92.4321 10.8216L93.0124 11.1047L93.5624 11.4326L94.0678 11.7999L94.5463 12.1959L94.9803 12.6348L95.3749 13.106L95.7285 13.622L96.0481 14.1774L96.3303 14.7597L96.5731 15.3922L96.7767 16.0461L96.9481 16.7539L97.0785 17.4849L97.1713 18.2678L97.2267 19.0759L97.2463 19.9305V20.1383L97.2374 20.3336L97.2178 20.5217L97.1624 20.8819L97.1267 21.0413L97.0785 21.2008L97.0303 21.3405L96.8999 21.6039L96.8356 21.7168L96.7481 21.8279L96.6642 21.9318L96.5731 22.016L96.4696 22.1038L96.366 22.1683L96.2553 22.2364L96.1321 22.2794L95.9999 22.3277L95.8678 22.3671L95.7285 22.3833L95.5785 22.403H79.6963V22.2722H79.6606V25.5635L79.6767 26.0042L79.7178 26.4342L79.7928 26.8427L79.8838 27.2261L80.0071 27.5934L80.1678 27.941L80.3428 28.2617L80.5606 28.5681L80.8035 28.853L81.0678 29.1235L81.366 29.3672L81.6838 29.5947L82.0392 29.8026L82.4249 29.9907L82.8267 30.1591L83.2696 30.3114L83.7356 30.4296L84.2321 30.5461L84.7588 30.6303L85.3071 30.6948L85.8892 30.7504L86.4981 30.7772L87.1356 30.7898H87.3713L87.6053 30.7772H87.8285L88.0553 30.7701L88.2713 30.7629L88.4856 30.7414L88.6999 30.7342L89.1142 30.6948L89.3106 30.6787L89.5088 30.6464L90.0713 30.5622L90.2463 30.5264L90.4178 30.487L90.5963 30.4511L90.7553 30.4153L90.9231 30.3669L91.0821 30.3257L91.2338 30.2827L91.3803 30.2272L91.5321 30.1788L91.616 30.1501L91.6999 30.1107L91.7946 30.0821L91.8856 30.0391L91.9892 29.9996L92.0928 29.9513L92.2053 29.8957L92.316 29.8474L92.5624 29.7201L92.6946 29.6521L92.8267 29.575L92.966 29.4998L93.1053 29.4156L93.2553 29.3314L93.4035 29.24L93.5624 29.1432L93.7213 29.0393L94.0606 28.8171L94.2392 28.7007L94.4267 28.5806L94.6142 28.4481L94.8374 28.2402L95.0642 28.0539L95.1678 27.9697L95.2588 27.8926L95.3624 27.8174L95.4588 27.7421L95.6249 27.6096L95.7928 27.4985L95.8678 27.4501L95.9446 27.4143L96.0124 27.3659L96.1392 27.3104L96.1981 27.2817L96.2553 27.262L96.2981 27.2459L96.3946 27.2261H96.5446L96.7321 27.2459L96.8249 27.262L96.9071 27.2817L96.9946 27.3104L97.0678 27.3372L97.1981 27.4143L97.266 27.4626L97.3767 27.5737L97.4249 27.6293L97.4731 27.6974L97.5446 27.8461L97.5731 27.9285L97.5928 28.0252L97.6213 28.122L97.6321 28.2134L97.6481 28.3173V28.4284L97.6606 28.552L97.6481 28.6649L97.641 28.7885L97.6213 28.9085L97.6053 29.0196L97.4892 29.3869L97.4338 29.4998L97.3767 29.6234L97.3142 29.747L97.1624 29.9907L97.0678 30.1036L96.8803 30.3472L96.6571 30.5909L96.4142 30.8381L96.1321 31.0818L95.9803 31.2019L95.8321 31.3326L95.5696 31.5208L95.2981 31.7089L95.016 31.8881L94.7249 32.069L94.4267 32.2285L94.1088 32.3879L93.7821 32.5277L93.4428 32.6674L93.0963 32.8L92.7303 32.9236L92.3571 33.0347L91.9696 33.1386L91.5803 33.2426L91.1731 33.3268L90.3338 33.4791L89.891 33.5346L89.441 33.5901L88.9838 33.626L88.5142 33.6672L87.5374 33.703H87.0321L86.1642 33.6941L85.3285 33.6475L84.5321 33.5704L83.7749 33.4594L83.0499 33.3268L82.3767 33.1601L81.7321 32.9595L81.1231 32.7284L80.5606 32.4721L80.0356 32.1801L79.5463 31.8612L79.0963 31.5046L78.6856 31.1248L78.3106 30.7145L77.9731 30.263L77.6821 29.7918L77.4321 29.283L77.216 28.7491L77.0374 28.1775L76.8981 27.5809L76.7946 26.9538L76.7392 26.2873L76.7178 25.5921V17.1498L76.7392 16.9026L76.7553 16.6786L76.7821 16.4421L76.8213 16.2074L76.8571 15.9834L76.9142 15.7559L76.9696 15.5391L77.0446 15.3151L77.1213 15.1001L77.2053 14.8851L77.2999 14.6773L77.5035 14.2616L77.6267 14.0574L77.7499 13.8567L77.8821 13.6614L78.0213 13.4733L78.1713 13.287L78.3321 13.0989L78.666 12.7387L78.8446 12.5596L79.0874 12.3266L79.6142 11.8913L79.8928 11.696L80.1838 11.5079L80.4856 11.3287L80.8035 11.1603L81.1231 11.0008L81.4571 10.8611L81.8035 10.7177L82.1624 10.5977L82.5285 10.4812L82.9106 10.3701L83.2963 10.277L83.6999 10.1892L84.1017 10.1175L84.5231 10.062L84.9535 10.0029L85.3838 9.95806L85.8338 9.9294L86.2963 9.90252L86.7606 9.88998L87.2392 9.88281L88.091 9.90252L88.916 9.95806ZM85.2713 12.8355L84.5517 12.9537L83.8463 13.1347L83.166 13.3586L82.516 13.6346L81.891 13.9535L81.2892 14.405L80.7838 14.8726L80.3696 15.3796L80.0642 15.9064L79.8374 16.4618L79.7053 17.0459L79.6606 17.6569V19.3876H94.2749L94.116 17.63L93.666 16.1357L92.9088 14.912L91.8392 13.9606L90.4731 13.2744L88.7838 12.8713L86.8017 12.7316L86.0213 12.7584L85.2713 12.8355Z" fill="#FF8591"/>
<path d="M283.552 9.73065L283.607 9.74319L283.72 9.77902L283.775 9.8059L283.823 9.83456L283.879 9.86144L283.934 9.90265L283.982 9.93848L284.038 9.98685L284.086 10.0299L284.141 10.0782L284.232 10.1893L284.329 10.3219L284.377 10.3971L284.42 10.4652L284.459 10.5494L284.507 10.6247L284.516 10.7017L284.552 10.8486L284.579 10.9329L284.598 11.0081L284.627 11.0851L284.647 11.1604L284.675 11.2374L284.702 11.3199L284.786 11.5438L284.814 11.628L284.87 11.7803L284.889 11.8556L284.918 11.9326L284.954 12.0795L284.986 12.1476L284.993 12.2229L285.013 12.2874L285.463 12.0724L286.343 11.6603L286.764 11.4686L287.184 11.293L287.589 11.121L287.991 10.9615L288.386 10.8128L288.768 10.682L289.143 10.5494L289.509 10.4384L289.863 10.3219L290.222 10.2305L290.895 10.0621L291.225 9.99402L291.532 9.93848L291.843 9.8901L292.141 9.86144L292.432 9.83456L292.723 9.81485H292.993L293.829 9.83456L294.614 9.88294L295.366 9.96535L296.075 10.0782L296.752 10.2305L297.389 10.4097L297.979 10.6247L298.539 10.8684L299.057 11.1407L299.536 11.4524L299.973 11.8L300.375 12.1673L300.743 12.5704L301.07 13.0112L301.359 13.4824L301.607 13.9823L301.822 14.5054L301.989 15.0716L302.12 15.6629L302.223 16.2828L302.279 16.9349L302.3 17.6176V26.1351L302.288 26.4756L302.272 26.7945L302.243 27.1152L302.204 27.4216L302.155 27.7333L302.093 28.0254L302.016 28.3174L301.932 28.6005L301.838 28.8728L301.738 29.1362L301.622 29.3996L301.491 29.6522L301.352 29.9066L301.2 30.1503L301.041 30.3868L300.873 30.6107L300.695 30.8383L300.5 31.0533L300.293 31.2701L300.086 31.4779L299.863 31.6732L299.627 31.8685L299.413 32.0405L299.197 32.1892L298.963 32.3397L298.727 32.4794L298.484 32.612L298.241 32.7356L297.979 32.8557L297.716 32.9596L297.445 33.0635L296.884 33.2516L296.282 33.4039L295.984 33.4666L295.664 33.5276L295.347 33.5706L294.689 33.6476L294.352 33.6745L294.005 33.6942L293.659 33.7031H292.873L292.439 33.687L292.022 33.6548L291.607 33.6261L291.197 33.5831L290.791 33.5276L290.4 33.4595L289.613 33.2911L289.227 33.1871L288.852 33.0832L288.477 32.9596L288.111 32.827L287.748 32.6801L287.391 32.5278L287.036 32.3612L286.689 32.1802L286.343 31.9921L286.005 31.7968L285.666 31.589L285.339 31.3614L285.013 31.1249V40.9504L285.002 41.1386L284.986 41.3177L284.966 41.4772L284.938 41.6384L284.898 41.7889L284.863 41.9287L284.814 42.0684L284.766 42.1939L284.702 42.3175L284.647 42.416L284.572 42.5199L284.507 42.6041L284.42 42.6919L284.336 42.7636L284.245 42.8317L284.148 42.8801L284.045 42.9249L283.941 42.9643L283.83 42.984L283.711 43.0001H283.464L283.352 42.9929L283.241 42.9643L283.138 42.9356L283.034 42.8962L282.847 42.7851L282.763 42.7206L282.68 42.6454L282.604 42.5486L282.536 42.4572L282.473 42.3533L282.416 42.2404L282.37 42.1168L282.322 41.9771L282.286 41.8373L282.245 41.685L282.218 41.5184L282.202 41.3464L282.182 41.1583L282.173 40.9701V11.7606L282.182 11.5725L282.189 11.4041L282.209 11.2374L282.23 11.0762L282.257 10.9257L282.293 10.7859L282.334 10.6534L282.377 10.5208L282.473 10.2932L282.529 10.2019L282.597 10.1069L282.659 10.0227L282.736 9.95819L282.82 9.8901L282.895 9.83456L282.986 9.78619L283.173 9.73065L283.277 9.71094H283.448L283.504 9.72169L283.552 9.73065ZM291.58 12.8517L291.157 12.8786L290.747 12.918L290.354 12.9754L289.979 13.0309L289.613 13.1061L289.266 13.1993L288.927 13.3014L288.602 13.4179L288.291 13.5469L288.02 13.6705L287.738 13.821L287.459 13.9894L287.168 14.1847L286.877 14.4123L286.579 14.6559L286.268 14.9283L285.948 15.2203L285.622 15.5321L285.272 15.8707L284.909 16.2272V27.9411H285.013V27.9017L285.854 28.4016L286.67 28.8531L287.459 29.2688L288.214 29.6235L288.948 29.9353L289.661 30.1861L290.341 30.4029L290.989 30.5749L291.616 30.6949L292.216 30.763L292.789 30.7899L293.284 30.7774L293.763 30.763L294.223 30.7146L294.67 30.6591L295.104 30.591L295.514 30.4979L295.907 30.3939L296.282 30.2631L296.641 30.1234L296.975 29.9514L297.286 29.7758L297.661 29.5393L297.988 29.2831L298.277 29.0126L298.532 28.7205L298.747 28.4088L298.927 28.0809L299.066 27.7333L299.177 27.3786L299.261 26.9898L299.3 26.5866L299.322 26.171V17.657L299.3 17.1661L299.254 16.7056L299.161 16.2828L299.038 15.8796L298.872 15.5034L298.672 15.1451L298.429 14.8172L298.157 14.5162L297.839 14.2456L297.48 13.9823L297.091 13.7529L296.772 13.5935L296.434 13.4466L296.075 13.3229L295.702 13.2101L295.298 13.1061L294.877 13.0219L294.439 12.9539L293.977 12.8983L293.498 12.8625L293.005 12.8428L292.488 12.8356L292.029 12.8428L291.58 12.8517Z" fill="#FF8591"/>
<path d="M120.25 3.15872C122.282 4.69239 123.332 6.86568 123.332 9.5066C123.332 10.7285 122.827 11.3413 121.804 11.3413C121.091 11.3413 120.586 10.7285 120.286 9.5066C120.08 8.49251 119.677 7.57697 119.172 6.61843C118.252 4.9916 116.297 4.24805 113.25 4.24805C110.579 4.24805 108.75 4.8608 107.636 6.17768C106.616 7.40139 106.007 9.2701 106.007 12.0149C106.007 13.0863 106.007 21.6129 106.007 22.6753C106.007 25.4596 106.616 27.3946 107.73 28.6165C108.95 29.9423 110.813 30.6465 113.457 30.6465C117.448 30.6465 119.78 29.2275 120.286 26.4468C120.482 25.4202 120.586 24.9131 120.586 24.8092C120.793 24.1983 121.195 23.8973 121.804 23.8973C122.827 23.8973 123.332 24.51 123.332 25.7319C123.332 28.3083 122.309 30.2433 120.147 31.777C118.423 32.895 116.257 33.5078 113.418 33.5078C110.141 33.5078 107.6 32.7911 105.736 31.2574C103.57 29.8384 102.663 27.3946 102.663 24.1983C102.663 16.5102 102.663 12.2317 102.663 11.3771C102.663 4.61534 106.111 1.32764 113.286 1.32764C116.154 1.32764 118.395 1.93859 120.25 3.15872Z" fill="#FF8591"/>
<path d="M267.118 12.4269C267.931 11.4039 268.643 10.7929 269.356 10.4937C270.057 10.0906 271.081 9.88276 272.223 9.88276C275.707 9.88276 277.534 11.6117 277.534 15.0033C277.534 16.6696 277.534 29.9709 277.534 31.6372C277.534 33.0633 277.029 33.6743 276.018 33.6743C274.995 33.6743 274.591 33.0633 274.591 31.6372C274.591 30.0748 274.591 17.6174 274.591 16.0586C274.591 13.9248 273.684 12.7673 271.923 12.7673C270.602 12.7673 269.252 13.5772 268.138 15.1449C268.138 16.8022 268.138 30.1107 268.138 31.7769C268.138 33.1959 267.623 33.8069 266.711 33.8069C265.797 33.8069 265.289 33.1959 265.289 31.7769C265.289 30.2343 265.289 17.9363 265.289 16.3955C265.289 14.0179 264.279 12.8981 262.411 12.8981C261.204 12.8981 260.05 13.7169 258.836 15.2757C258.836 16.9348 258.836 30.1501 258.836 31.8056C258.836 33.2353 258.325 33.8463 257.306 33.8463C256.295 33.8463 255.893 33.2353 255.893 31.8056C255.893 29.7631 255.893 13.4464 255.893 11.4039C255.893 10.3898 256.295 9.98668 257.111 9.98668C257.513 9.98668 257.914 10.2859 258.122 10.8968C258.325 11.1692 258.422 11.6762 258.422 12.2872C259.377 11.2731 259.986 10.6603 260.248 10.4543C260.857 10.0494 261.67 9.84155 262.825 9.84155C264.447 9.84155 265.898 10.6603 267.118 12.4269Z" fill="#FF8591"/>
<path d="M140.723 9.93832L141.798 10.0906L142.809 10.2931L143.729 10.569L144.581 10.8969L145.35 11.2928L146.034 11.7443L146.645 12.2585L147.166 12.8229L147.616 13.4625L147.982 14.1487L148.264 14.8994L148.472 15.72L148.591 16.5818L148.631 17.5135V25.9397L148.591 26.8714L148.472 27.7332L148.273 28.5519L147.995 29.3044L147.636 29.9907L147.205 30.6177L146.688 31.1929L146.098 31.7089L145.425 32.1604L144.677 32.5563L143.841 32.8878L142.932 33.1601L141.948 33.3662L140.882 33.5149L139.739 33.6116L138.52 33.6385L137.227 33.6259L136.016 33.5543L134.893 33.4109L133.861 33.2157L132.918 32.9523L132.054 32.6244L131.277 32.2356L130.584 31.7841L129.975 31.2699L129.441 30.6948L129 30.0552L128.632 29.36L128.354 28.6003L128.156 27.769L128.036 26.8857L127.997 25.9397V17.5135L128.036 16.5818L128.156 15.72L128.363 14.8994L128.645 14.1487L129.007 13.4625L129.457 12.8229L129.982 12.2585L130.593 11.7443L131.277 11.2928L132.047 10.8969L132.889 10.569L133.818 10.2931L134.829 10.0906L135.904 9.93832L137.068 9.84157L138.314 9.8147L139.559 9.84157L140.723 9.93832ZM135.945 12.8354L135.004 13.0021L134.164 13.2386L133.411 13.5378L132.759 13.914L132.206 14.3458L131.756 14.8564L131.397 15.419L131.147 16.0461L130.986 16.7538L130.939 17.5135V25.9397L130.986 26.6994L131.147 27.3945L131.397 28.0324L131.763 28.6003L132.225 29.0966L132.786 29.5266L133.452 29.8867L134.22 30.1859L135.091 30.4027L136.064 30.5622L137.143 30.6374L138.314 30.6464L139.464 30.6374L140.516 30.5622L141.479 30.4224L142.332 30.2074L143.091 29.9226L143.748 29.5678L144.311 29.1432L144.768 28.6451L145.127 28.0736L145.377 27.4339L145.538 26.7191L145.584 25.9397V17.5135L145.538 16.7538L145.377 16.0461L145.127 15.419L144.761 14.8564L144.291 14.3458L143.729 13.914L143.056 13.5378L142.275 13.2386L141.388 13.0021L140.404 12.8354L139.306 12.7315L138.107 12.7029L136.984 12.7315L135.945 12.8354Z" fill="#FF8591"/>
<path d="M241.529 9.62672L241.875 9.64643L242.202 9.6751L242.52 9.6948L242.83 9.73064L243.138 9.75751L243.441 9.80589L243.73 9.84172L244.009 9.90264L244.28 9.94564L244.543 10.0137L244.805 10.0693L245.048 10.1338L245.304 10.209L245.539 10.2861L245.763 10.3613L245.989 10.4455L246.204 10.5423L246.42 10.6247L246.625 10.7286L246.821 10.8218L247.009 10.9257L247.195 11.0368L247.402 11.1891L247.598 11.3485L247.784 11.508L247.964 11.6889L248.136 11.8645L248.302 12.0634L248.461 12.2587L248.613 12.4665L248.752 12.6833L248.884 12.9073L249.004 13.1348L249.127 13.3695L249.334 13.8783L249.425 14.1417L249.509 14.4051L249.584 14.6846L249.652 14.9677L249.707 15.2597L249.755 15.5589L249.791 15.8707L249.827 16.1914L249.848 16.5103L249.868 16.8382V27.7691L249.875 27.9143V28.054L249.895 28.3174L249.914 28.5611L249.93 28.6847L249.95 28.7958L249.971 28.8997L249.998 29.0126L250.014 29.1165L250.075 29.3046L250.111 29.3996L250.221 29.6522L250.261 29.7274L250.305 29.8027L250.354 29.8672L250.464 29.9998L250.588 30.1234L250.607 30.1306L250.636 30.1503L250.652 30.1664L250.691 30.1789L250.72 30.1986L250.795 30.2345L250.839 30.2631L250.934 30.299L250.991 30.3258L251.046 30.3473L251.245 30.4298L251.468 30.5193L251.552 30.5462L251.636 30.5821L251.723 30.6107L251.807 30.6466L251.898 30.686L252.002 30.7218L252.057 30.7415L252.173 30.7988L252.216 30.8383L252.264 30.8669L252.361 30.9386L252.397 30.9852L252.432 31.0264L252.471 31.0694L252.5 31.1249L252.527 31.1733L252.582 31.2862L252.604 31.3543L252.623 31.4098L252.639 31.4851L252.659 31.5496L252.666 31.6248L252.686 31.7018L252.695 31.7843V31.8685L252.707 31.9563V32.3325L252.686 32.4239L252.679 32.5009L252.659 32.5833L252.639 32.6604L252.611 32.7356L252.582 32.8001L252.547 32.8682L252.507 32.9238L252.416 33.0348L252.368 33.0832L252.313 33.1316L252.113 33.2427L251.966 33.3L251.882 33.3197L251.788 33.3358L251.6 33.3556L251.497 33.3663H251.309L251.273 33.3556H251.245L251.205 33.3466H251.17L251.13 33.3358L250.943 33.3L250.898 33.2785L250.839 33.2713L250.784 33.2516L250.727 33.2427L250.532 33.1871L250.457 33.1674L250.393 33.1477L250.318 33.1316L250.234 33.1119L250.157 33.0832L250.075 33.0635L249.811 32.9721L249.688 32.9238L249.568 32.8879L249.454 32.8396L249.23 32.7643L249.127 32.7285L249.023 32.6962L248.932 32.6604L248.845 32.6317L248.752 32.6048L248.677 32.5762L248.593 32.5475L248.518 32.5278L248.454 32.5009L248.386 32.4794L248.275 32.4436L248.136 32.3881L248.095 32.3755L248.068 32.3612L248.039 32.3486L247.975 32.3397L247.916 32.3325L247.852 32.3128L247.797 32.2931L247.741 32.2644L247.693 32.2286L247.638 32.1892L247.589 32.1533L247.541 32.105L247.498 32.0494L247.45 32.0011L247.411 31.9366L247.375 31.881L247.327 31.8058L247.291 31.7377L247.263 31.666L247.223 31.589L247.188 31.5048L247.132 31.3328L247.02 30.9583L246.988 30.8544L246.579 31.1375L246.184 31.4008L245.996 31.5334L245.643 31.7574L245.472 31.8685L245.152 32.0763L244.854 32.2644L244.714 32.3486L244.582 32.4239L244.339 32.5762L244.216 32.6407L244.113 32.7088L243.814 32.8557L243.73 32.8951L243.58 32.9721L243.504 32.9883L243.384 33.0474L243.261 33.0832L242.998 33.1746L242.577 33.2911L242.438 33.3197L242.286 33.3556L242.138 33.3824L241.82 33.4398L241.661 33.4595L241.502 33.4863L240.995 33.5437L240.816 33.5544L240.638 33.5706L240.457 33.5831L240.27 33.5903L240.095 33.5992H239.223L238.932 33.5903L238.65 33.5831L238.088 33.5437L237.547 33.4863L237.284 33.4505L237.021 33.4039L236.516 33.3072L236.03 33.1961L235.795 33.1316L235.559 33.0563L235.332 32.9793L235.109 32.8951L234.68 32.7285L234.473 32.6246L234.266 32.5278L234.07 32.4239L233.872 32.3128L233.684 32.1999L233.496 32.0763L233.282 31.9294L233.075 31.7771L232.684 31.4367L232.505 31.2701L232.334 31.0891L232.166 30.9028L232.016 30.7146L231.868 30.5193L231.729 30.3115L231.605 30.1037L231.482 29.8869L231.37 29.6719L231.268 29.4443L231.175 29.2204L231.091 28.9839L230.941 28.4966L230.884 28.2493L230.838 27.9967L230.761 27.4699L230.725 26.9271V26.3627L230.741 26.0868L230.761 25.8073L230.802 25.5439L230.893 25.0171L231.023 24.5101L231.107 24.2664L231.295 23.7934L231.411 23.5587L231.522 23.3348L231.784 22.903L231.923 22.6951L232.075 22.4963L232.234 22.2992L232.411 22.1128L232.58 21.9319L232.768 21.7563L232.963 21.5843L233.377 21.2654L233.6 21.1167L233.995 20.8336L234.202 20.701L234.632 20.4573L235.082 20.2298L235.316 20.1313L235.782 19.9396L236.03 19.8553L236.536 19.7066L236.786 19.6386L237.048 19.5758L237.313 19.5185L237.575 19.4719L237.845 19.4236L238.116 19.3877L238.398 19.3591L238.67 19.3322L238.961 19.3107L239.243 19.291L239.534 19.2838H240.068L240.311 19.291L240.561 19.2999L241.066 19.3393L241.322 19.368L241.584 19.3949L241.848 19.4307L242.118 19.4791L242.38 19.5185L242.652 19.5758L242.923 19.6188L243.205 19.6798L243.766 19.8106L244.639 20.0345L244.93 20.1187L245.236 20.2029L245.539 20.2979L245.845 20.3893L246.155 20.4932L246.475 20.5971L246.793 20.71V17.1105L246.786 16.9027L246.773 16.7056L246.757 16.5103L246.729 16.3114L246.689 16.1358L246.654 15.9441L246.598 15.7668L246.543 15.5966L246.475 15.4281L246.398 15.2687L246.316 15.1074L246.129 14.8082L246.016 14.6559L245.905 14.5251L245.782 14.3854L245.52 14.1417L245.368 14.0181L245.048 13.7941L244.882 13.6902L244.702 13.5935L244.516 13.5021L244.32 13.4053L244.189 13.3498L243.905 13.2387L243.309 13.0506L242.83 12.9395L242.659 12.9073L242.5 12.8786L242.325 12.8517L242.154 12.8231L241.988 12.8069L241.632 12.7675L241.445 12.7478L241.266 12.7388L241.079 12.7191L240.891 12.7102H240.705L240.518 12.703H239.673L239.23 12.7191L238.802 12.7388L238.398 12.7783L238.013 12.8231L237.638 12.8786L237.291 12.9395L236.954 13.0112L236.634 13.099L236.336 13.1993L236.057 13.3014L235.782 13.4179L235.532 13.5469L235.297 13.6777L235.082 13.83L234.882 13.9823L234.697 14.1489L234.529 14.3298L234.377 14.5251L234.238 14.724L234.127 14.9283L234.014 15.1558L233.927 15.3923L233.855 15.636L233.8 15.8868L233.78 16.0104L233.752 16.1233L233.713 16.3311L233.677 16.5193L233.641 16.6859L233.62 16.7629L233.609 16.8382L233.593 16.9027L233.58 16.9708L233.564 17.0263L233.554 17.0818L233.538 17.1786L233.516 17.2538V17.2897L233.509 17.3183V17.3452L233.496 17.3649V17.4133L233.47 17.4778L233.413 17.5889L233.386 17.6373L233.309 17.734L233.282 17.777L233.234 17.8164L233.198 17.8523L233.15 17.8935L233.114 17.9203L233.066 17.949L233.011 17.9777L232.963 18.0046L232.907 18.0207L232.859 18.0404L232.804 18.0601L232.741 18.0816L232.684 18.0888L232.616 18.1085L232.554 18.1174H232.486L232.422 18.1246H232.159L232.048 18.1174L231.82 18.0816L231.716 18.0601L231.438 17.949L231.35 17.8935L231.268 17.8451L231.191 17.777L231.12 17.7215L230.988 17.5728L230.932 17.485L230.838 17.3183L230.789 17.2144L230.761 17.1105L230.725 17.0066L230.698 16.8937L230.677 16.7826L230.67 16.659L230.657 16.5264V16.2183L230.67 16.0319L230.677 15.851L230.705 15.6718L230.725 15.4962L230.802 15.1361L230.893 14.7813L230.948 14.6004L231.004 14.4338L231.072 14.2528L231.148 14.0862L231.23 13.9052L231.398 13.5666L231.709 13.0578L231.82 12.8983L231.945 12.7317L232.334 12.2515L232.486 12.0921L232.654 11.8914L233.047 11.5366L233.263 11.3682L233.732 11.0493L233.988 10.906L234.247 10.7644L234.529 10.6336L234.811 10.51L235.109 10.3971L235.429 10.2861L235.747 10.1893L236.086 10.0979L236.432 10.0137L236.786 9.93847L237.152 9.87039L237.527 9.80589L238.316 9.71093L238.725 9.6751L239.148 9.64643L239.577 9.62672L240.02 9.61776L240.47 9.6106H240.823L241.182 9.61776L241.529 9.62672ZM237.229 22.7238L236.009 23.1556L235.063 23.7737L234.377 24.5656L233.966 25.5313L233.836 26.6834L233.872 27.2818L233.988 27.8462L234.182 28.3801L234.452 28.8728L234.798 29.3046L235.241 29.6719L235.766 29.9711L236.216 30.2148L236.711 30.4226L237.245 30.591L237.818 30.7218L238.427 30.8186L239.072 30.8741L239.757 30.8938L240.359 30.8741L240.936 30.8383L241.502 30.763L242.05 30.6466L242.588 30.5068L243.121 30.3115L243.643 30.075L244.002 29.8672L244.397 29.6038L244.834 29.3118L245.304 28.9839L245.809 28.6166L246.336 28.2206L246.889 27.8014V23.4942L245.932 23.2022L244.977 22.9585L244.03 22.7507L243.102 22.5912L242.195 22.4676L241.314 22.3959L240.47 22.3762L238.718 22.4604L237.229 22.7238Z" fill="#FF8591"/>
<path d="M172.643 0.0680833L172.754 0.103917L172.857 0.159458L172.954 0.215L173.045 0.283083L173.129 0.360125L173.28 0.52675L173.348 0.630667L173.404 0.743542L173.459 0.867167L173.507 0.987208L173.579 1.27029L173.634 1.591L173.654 1.94575L173.666 2.13387V32.302L173.654 32.4435L173.646 32.5743L173.634 32.6979L173.579 32.9219L173.55 33.0258L173.507 33.1225L173.468 33.2139L173.355 33.3859L173.225 33.5167L173.148 33.5812L173.073 33.6296L172.982 33.678L172.898 33.721L172.802 33.7604L172.698 33.789L172.475 33.8249L172.361 33.8374H172.157L171.93 33.8087L171.854 33.789L171.791 33.7604L171.723 33.7407L171.659 33.7048L171.604 33.678L171.548 33.6367L171.493 33.5902L171.396 33.497L171.348 33.4415L171.238 33.2426L171.209 33.1691L171.182 33.0813L171.161 32.9971L171.134 32.9147L171.125 32.8215V32.6782L171.118 32.603V32.5385L171.105 32.4632V32.3987L171.098 32.3235V32.2464L171.086 32.1712L171.079 32.087L171.07 32.0117V31.9275L171.05 31.7591V31.6641L171.043 31.5799L171.03 31.476V31.2807L171.021 31.1768V30.9475L170.779 31.0997L170.552 31.252L170.321 31.399L169.888 31.6641L169.693 31.7949L169.486 31.9185L169.111 32.1425L168.932 32.2464L168.764 32.3503L168.596 32.4435L168.146 32.6979L168.016 32.7624L167.884 32.8377L167.641 32.9505L167.434 33.0455L167.33 33.0813L167.179 33.1422L167.02 33.1978L166.861 33.2426L166.527 33.3375L165.989 33.4486L165.802 33.4898L165.427 33.5454L165.034 33.6009L164.838 33.6206L164.429 33.6565L164.221 33.6654L164.005 33.678L163.798 33.6851L163.584 33.6923H162.768L162.393 33.6851L162.039 33.6654L161.68 33.6367L161.334 33.6099L160.988 33.5615L160.661 33.5167L160.004 33.402L159.386 33.2533L159.077 33.1691L158.786 33.0813L158.495 32.9828L157.934 32.775L157.662 32.6495L157.4 32.5313L157.145 32.3987L156.895 32.2554L156.65 32.1156L156.404 31.9633L156.154 31.7877L155.668 31.3918L155.448 31.184L155.234 30.969L155.03 30.7414L154.839 30.5085L154.664 30.2612L154.493 30.0176L154.195 29.4944L154.063 29.2185L153.952 28.939L153.839 28.647L153.745 28.3549L153.661 28.0432L153.596 27.7242L153.537 27.4035L153.493 27.0775L153.454 26.737L153.438 26.3895V17.0638L153.454 16.7162L153.493 16.3884L153.529 16.0695L153.584 15.7505L153.661 15.4388L153.736 15.1378L153.827 14.8475L153.93 14.5627L154.043 14.2921L154.173 14.0198L154.305 13.7564L154.457 13.5002L154.623 13.2565L154.795 13.0218L154.982 12.7853L155.17 12.5703L155.377 12.3535L155.591 12.1457L156.057 11.7551L156.312 11.5742L156.536 11.4237L156.762 11.2821L157.005 11.1424L157.261 11.0116L157.511 10.888L157.773 10.7643L158.316 10.5601L158.598 10.4562L159.18 10.2842L159.777 10.1355L160.087 10.0799L160.405 10.0244L160.725 9.976L161.052 9.92942L161.709 9.87208L162.046 9.85237L162.393 9.84521H163.198L163.648 9.86492L163.863 9.87208L164.089 9.88104L164.296 9.90075L164.511 9.92046L164.707 9.93658L164.914 9.96525L165.307 10.0244L165.495 10.053L165.87 10.1247L166.048 10.1641L166.216 10.2L166.721 10.3433L166.873 10.4006L167.032 10.4562L167.179 10.5117L167.339 10.5672L167.489 10.6353L167.65 10.6998L167.809 10.7751L167.975 10.8521L168.295 11.0187L168.8 11.3036L168.971 11.4022L169.477 11.7426L169.832 11.9862L170.004 12.1188L170.179 12.2496L170.357 12.393L170.711 12.694V2.13387L170.723 1.94575L170.739 1.591L170.8 1.27029L170.827 1.13054L170.871 0.987208L170.911 0.867167L170.966 0.743542L171.021 0.630667L171.086 0.52675L171.154 0.444333L171.229 0.360125L171.305 0.283083L171.396 0.215L171.48 0.159458L171.575 0.103917L171.679 0.0680833L171.902 0.0125417L172.014 0H172.277L172.4 0.0125417L172.643 0.0680833ZM162.468 12.9573L161.998 13.0003L161.541 13.0487L161.091 13.1257L160.67 13.2207L160.255 13.321L159.873 13.4518L159.505 13.597L159.159 13.7636L158.841 13.9445L158.475 14.2079L158.129 14.4874L157.821 14.7902L157.546 15.1109L157.304 15.4388L157.1 15.7935L156.921 16.1698L156.791 16.5657L156.695 16.9796L156.63 17.4042L156.611 17.8557V25.9577L156.63 26.4253L156.688 26.8696L156.77 27.2925L156.902 27.6956L157.061 28.0718L157.261 28.432L157.504 28.767L157.782 29.0787L158.093 29.3708L158.446 29.6216L158.841 29.8689L159.188 30.0301L159.546 30.177L159.92 30.3096L160.314 30.4404L160.716 30.5533L161.146 30.6482L161.589 30.7325L162.055 30.8005L162.532 30.8453L163.03 30.8722L163.545 30.8847L164.368 30.865L164.775 30.8364L165.164 30.8005L165.934 30.6841L166.3 30.6124L166.657 30.5175L167.004 30.4135L167.33 30.3007L167.641 30.1699L167.9 29.9889L168.175 29.8008L168.454 29.6055L168.736 29.3905L169.027 29.1737L169.325 28.939L169.636 28.6953L169.943 28.4391L170.261 28.1668L170.593 27.8837L170.918 27.5917V15.7774L170.536 15.5015L170.162 15.2507L169.804 14.9945L169.45 14.7597L169.111 14.543L168.793 14.3477L168.482 14.1595L168.191 14.0001L167.92 13.8603L167.67 13.7367L167.434 13.64L167.096 13.5127L166.757 13.3963L166.411 13.2924L166.057 13.201L165.702 13.1257L165.336 13.0684L164.961 13.0129L164.595 12.9735L164.209 12.9448L163.441 12.9287L162.955 12.9376L162.468 12.9573Z" fill="#FF8591"/>
<path d="M222.77 3.15872C224.804 4.69239 225.852 6.86568 225.852 9.5066C225.852 10.7285 225.347 11.3413 224.327 11.3413C223.622 11.3413 223.116 10.7285 222.809 9.5066C222.602 8.49251 222.2 7.57697 221.695 6.61843C220.775 4.9916 218.814 4.24805 215.773 4.24805C213.1 4.24805 211.273 4.8608 210.157 6.17768C209.147 7.40139 208.538 9.2701 208.538 12.0149C208.538 13.0863 208.538 21.6129 208.538 22.6753C208.538 25.4596 209.147 27.3946 210.261 28.6165C211.48 29.9423 213.336 30.6465 215.975 30.6465C219.97 30.6465 222.304 29.2275 222.809 26.4468C223.013 25.4202 223.116 24.9131 223.116 24.8092C223.314 24.1983 223.725 23.8973 224.327 23.8973C225.347 23.8973 225.852 24.51 225.852 25.7319C225.852 28.3083 224.839 30.2433 222.677 31.777C220.941 32.895 218.779 33.5078 215.939 33.5078C212.659 33.5078 210.122 32.7911 208.266 31.2574C206.197 29.8384 205.184 27.3946 205.184 24.1983C205.184 16.5102 205.184 12.2317 205.184 11.3771C205.184 4.61534 208.668 1.32764 215.809 1.32764C218.684 1.32764 220.914 1.93859 222.77 3.15872Z" fill="#FF8591"/>
<path d="M191.437 9.95806L192.214 10.0494L192.955 10.1892L193.661 10.3612L194.325 10.569L194.95 10.8216L195.544 11.1047L196.086 11.4326L196.598 11.7999L197.069 12.1959L197.498 12.6348L197.893 13.106L198.259 13.622L198.578 14.1774L198.861 14.7597L199.103 15.3922L199.307 16.0461L199.478 16.7539L199.609 17.4849L199.702 18.2678L199.757 19.0759L199.777 19.9305L199.769 20.1383L199.757 20.3336L199.741 20.5217L199.721 20.7009L199.686 20.8819L199.644 21.0413L199.598 21.2008L199.553 21.3405L199.498 21.4731L199.43 21.6039L199.355 21.7168L199.271 21.8279L199.187 21.9318L199 22.1038L198.773 22.2364L198.53 22.3277L198.391 22.3671L198.252 22.3833L198.1 22.403L182.182 22.4048L182.18 25.5635L182.2 26.0042L182.236 26.4342L182.311 26.8427L182.407 27.2261L182.537 27.5934L182.686 27.941L182.873 28.2617L183.08 28.5681L183.323 28.853L183.586 29.1235L183.887 29.3672L184.214 29.5947L184.561 29.8026L184.943 29.9907L185.357 30.1591L185.787 30.3114L186.257 30.4296L186.755 30.5461L187.277 30.6303L187.83 30.6948L188.412 30.7504L189.021 30.7772L189.659 30.7898H189.893L190.128 30.7772H190.352L190.802 30.7629L191.016 30.7414L191.223 30.7342L191.634 30.6948L191.832 30.6787L192.027 30.6464L192.589 30.5622L192.948 30.487L193.286 30.4153L193.444 30.3669L193.605 30.3257L193.764 30.2827L193.911 30.2272L194.137 30.1501L194.221 30.1107L194.312 30.0821L194.409 30.0391L194.512 29.9996L194.616 29.9513L194.727 29.8957L194.839 29.8474L195.082 29.7201L195.212 29.6521L195.344 29.575L195.484 29.4998L195.627 29.4156L195.775 29.3314L195.927 29.24L196.086 29.1432L196.244 29.0393L196.412 28.9282L196.769 28.7007L196.95 28.5806L197.137 28.4481L197.248 28.3441L197.368 28.2402L197.471 28.1489L197.586 28.0539L197.686 27.9697L197.789 27.8926L197.977 27.7421L198.064 27.6776L198.155 27.6096L198.239 27.554L198.316 27.4985L198.391 27.4501L198.466 27.4143L198.53 27.3659L198.662 27.3104L198.718 27.2817L198.828 27.2459L198.877 27.2333L198.916 27.2261H199.064L199.168 27.2333L199.262 27.2459L199.43 27.2817L199.514 27.3104L199.589 27.3372L199.666 27.3784L199.728 27.4143L199.784 27.4626L199.9 27.5737L199.944 27.6293L199.991 27.6974L200.068 27.8461L200.094 27.9285L200.123 28.0252L200.162 28.2134L200.171 28.3173L200.178 28.4284V28.6649L200.162 28.7885L200.152 28.9085L200.123 29.0196L200.094 29.1432L200.059 29.2686L200.012 29.3869L199.955 29.4998L199.9 29.6234L199.832 29.747L199.686 29.9907L199.598 30.1036L199.505 30.2272L199.298 30.4709L198.932 30.8381L198.511 31.2019L198.352 31.3326L197.83 31.7089L197.546 31.8881L197.248 32.069L196.95 32.2285L196.63 32.3879L196.3 32.5277L195.962 32.6674L195.616 32.8L195.253 32.9236L194.878 33.0347L194.493 33.1386L194.098 33.2426L193.696 33.3268L193.286 33.4038L192.852 33.4791L192.414 33.5346L191.964 33.5901L191.502 33.626L191.036 33.6672L190.061 33.703H189.555L188.682 33.6941L187.85 33.6475L187.053 33.5704L186.293 33.4594L185.58 33.3268L184.9 33.1601L184.25 32.9595L183.653 32.7284L183.08 32.4721L182.553 32.1801L182.068 31.8612L181.618 31.5046L181.209 31.1248L180.83 30.7145L180.503 30.263L180.205 29.7918L179.95 29.283L179.736 28.7491L179.555 28.1775L179.416 27.5809L179.325 26.9538L179.257 26.2873L179.237 25.5921V17.3809L179.25 17.1498L179.257 16.9026L179.277 16.6786L179.305 16.4421L179.341 16.2074L179.436 15.7559L179.5 15.5391L179.568 15.3151L179.643 15.1001L179.727 14.8851L179.818 14.6773L180.025 14.2616L180.148 14.0574L180.268 13.8567L180.4 13.6614L180.552 13.4733L180.691 13.287L180.85 13.0989L181.189 12.7387L181.375 12.5596L181.618 12.3266L181.873 12.1081L182.144 11.8913L182.414 11.696L182.705 11.5079L183.016 11.3287L183.323 11.1603L183.653 11.0008L183.98 10.8611L184.327 10.7177L184.684 10.5977L185.434 10.3701L185.816 10.277L186.218 10.1892L186.623 10.1175L187.043 10.062L187.477 10.0029L187.914 9.95806L188.355 9.9294L188.814 9.90252L189.284 9.88998L189.762 9.88281L190.621 9.90252L191.437 9.95806ZM187.802 12.8355L187.073 12.9537L186.369 13.1347L185.696 13.3586L185.039 13.6346L184.421 13.9535L183.812 14.405L183.307 14.8726L182.9 15.3796L182.582 15.9064L182.359 16.4618L182.228 17.0459L182.18 17.6569V19.3876H196.798L196.646 17.63L196.189 16.1357L195.428 14.912L194.361 13.9606L192.994 13.2744L191.307 12.8713L189.319 12.7316L188.552 12.7584L187.802 12.8355Z" fill="#FF8591"/>
</g>
<defs>
<clipPath id="clip0_6_2076">
<rect width="375" height="43" fill="white"/>
</clipPath>
</defs>
</svg>
